<?xml version="1.0" encoding="utf-8"?>
<!-- Generator: Adobe Illustrator 24.1.0, SVG Export Plug-In . SVG Version: 6.00 Build 0)  -->
<svg version="1.1" id="Layer_1" xmlns="http://www.w3.org/2000/svg" xmlns:xlink="http://www.w3.org/1999/xlink" x="0px" y="0px"
	 viewBox="0 0 505.2 536.4" style="enable-background:new 0 0 505.2 536.4;" xml:space="preserve">
<style type="text/css">
	.st0{fill:#4d5254;}
</style>
<g>
	<path class="st0" d="M84.2,373.1c-0.2,0.3-0.4,0.6-0.7,1.1l2.3,1.9c0.3-0.4,0.6-0.8,0.8-1.2c0.4-0.7,0.7-1.4,0.9-2.1
		c0.7-2.3,0.3-4.5-0.9-6.5c-1.1-1.8-2.4-3-4.1-3.6c-1.9-0.8-3.7-0.6-5.5,0.4c-1.3,0.8-2.1,1.9-2.4,3.4c-0.3,1.9,0.2,4.2,1.6,6.9
		c0.8,1.5,1,2.8,0.6,3.9c-0.2,0.7-0.6,1.1-1.3,1.5c-1.2,0.6-2.4,0.5-3.5-0.2c-0.4-0.3-0.8-0.6-1.1-1c-0.1-0.1-0.2-0.3-0.3-0.4
		c-0.1-0.1-0.2-0.2-0.3-0.4c-0.6-1.1-1-2.1-1-3.2c0-1.3,0.5-2.5,1.5-3.5l-2.2-2c-1.5,1.6-2.3,3.5-2.3,5.5c0,1.7,0.5,3.3,1.4,4.8l0,0
		c1,1.6,2.2,2.7,3.7,3.4c1.7,0.8,3.5,0.7,5.3-0.2c1.3-0.7,2.3-1.7,2.7-3.2c0.6-1.9,0.4-3.9-0.8-6.2c-1.7-3.4-1.8-5.5-0.3-6.4
		c1.1-0.6,2.2-0.6,3.3,0c0.4,0.2,0.9,0.6,1.3,1c0.3,0.4,0.7,0.8,0.9,1.1c0.8,1.3,1,2.7,0.6,4.2C84.6,372.5,84.4,372.8,84.2,373.1z"
		/>
	<polygon class="st0" points="104.8,397.3 107.1,395.4 96,381.5 93.7,383.4 98.3,389.2 83.9,400.7 85.8,403 100.2,391.5 	"/>
	<path class="st0" d="M97.8,416.8l3.8-1.6l5.9,5.8l-1.6,3.8l2.3,2.3l9.2-22l-21.8,9.4L97.8,416.8z M111.8,410.8l-3,7.2l-4.2-4.1
		L111.8,410.8z"/>
	<polygon class="st0" points="143.2,427.4 134.4,439.4 131.8,417.8 118.5,435.9 121,437.6 129.7,425.7 132.4,447.2 145.6,429.1 	"/>
	<path class="st0" d="M165.3,441.4c-0.9-1.1-2-2-3.3-2.7l-6.5-3.4l-9.9,19l6.5,3.4c1.3,0.7,2.6,1.1,4.1,1.2c1.4,0.1,2.7,0,4.1-0.5
		c1.3-0.4,2.5-1.1,3.6-2c1.1-0.9,2-2,2.7-3.3c0.7-1.3,1.1-2.6,1.2-4.1c0.1-1.4,0-2.7-0.4-4.1C166.8,443.6,166.1,442.4,165.3,441.4z
		 M163.7,452c-1,1.9-2.5,3.1-4.5,3.8c-2,0.6-4,0.5-5.9-0.5l-3.9-2.1l7.1-13.7l3.9,2.1c1.9,1,3.1,2.5,3.8,4.5
		C164.8,448.2,164.6,450.2,163.7,452z"/>
	<path class="st0" d="M193.9,454.6c-1-2.2-2.6-3.7-4.9-4.5c-1.9-0.7-3.8-0.7-5.5-0.2c-1.9,0.6-3.3,1.9-3.9,3.8
		c-0.5,1.5-0.4,2.8,0.3,4.1c0.9,1.6,2.8,3.1,5.6,4.3c1.6,0.7,2.6,1.5,3,2.6c0.2,0.6,0.2,1.3,0,1.9c-0.6,1.2-1.5,1.9-2.8,2
		c-0.5,0-1,0-1.5-0.1c-0.2,0-0.4-0.1-0.5-0.1c-0.1,0-0.3-0.1-0.5-0.1c-1.2-0.4-2.1-1-2.8-1.9c-0.8-1-1.2-2.2-1.1-3.7l-3-0.2
		c-0.1,2.2,0.5,4.1,1.8,5.7c1.1,1.3,2.5,2.2,4.1,2.8l0,0c1.8,0.6,3.4,0.7,5,0.2c1.8-0.5,3.1-1.7,4-3.5c0.6-1.4,0.6-2.8,0.1-4.2
		c-0.7-1.8-2.2-3.3-4.5-4.2c-3.5-1.5-4.9-3-4.3-4.7c0.4-1.2,1.3-1.9,2.6-2.1c0.5-0.1,1.1-0.1,1.6,0c0.5,0.1,1,0.2,1.4,0.3
		c1.5,0.5,2.5,1.5,3.1,2.9c0.2,0.4,0.4,0.8,0.4,1.1s0.1,0.7,0.1,1.3l3-0.1c0-0.5-0.1-1-0.1-1.4C194.4,456,194.2,455.2,193.9,454.6z"
		/>
	<polygon class="st0" points="235.6,475.4 233.4,467.8 237.1,461 233.8,460.6 232.3,463.6 231.4,460.4 228.1,460 230.2,467.4 
		226.4,474.4 222.2,459.4 219,459 225.5,482.4 231.4,471.6 234.7,483.4 246.2,462 243,461.7 	"/>
	
		<rect x="257" y="461.7" transform="matrix(0.9998 -2.229891e-02 2.229891e-02 0.9998 -10.4694 5.8811)" class="st0" width="3" height="21.4"/>
	<polygon class="st0" points="288,458.9 270.4,461.2 270.8,464.2 278.2,463.2 280.6,481.5 283.5,481.1 281.1,462.8 288.4,461.9 	"/>
	<polygon class="st0" points="311.2,453.1 313.6,462 303.6,464.8 301.1,455.9 298.2,456.7 304,477.4 306.9,476.6 304.4,467.7 
		314.5,464.9 316.9,473.8 319.8,473 314.1,452.3 	"/>
	<path class="st0" d="M355.5,446.8c-1.8-0.7-3.9-0.6-6.2,0.4c-3.4,1.5-5.6,1.5-6.4-0.1c-0.6-1.1-0.5-2.2,0.2-3.3
		c0.3-0.4,0.6-0.9,1.1-1.2c0.4-0.3,0.8-0.6,1.2-0.8c1.4-0.7,2.8-0.8,4.2-0.3c0.5,0.1,0.8,0.3,1.1,0.5c0.3,0.2,0.6,0.4,1,0.7l2-2.2
		c-0.4-0.3-0.8-0.6-1.1-0.8c-0.6-0.4-1.3-0.7-2-1c-2.2-0.8-4.4-0.6-6.6,0.5c-1.8,1-3.1,2.2-3.9,3.9c-0.9,1.9-0.8,3.7,0.1,5.5
		c0.7,1.4,1.8,2.2,3.2,2.6c1.8,0.5,4.2,0.1,7-1.2c1.5-0.7,2.9-0.8,3.9-0.4c0.6,0.3,1.1,0.7,1.4,1.3c0.5,1.2,0.4,2.4-0.4,3.5
		c-0.3,0.4-0.7,0.7-1.1,1c-0.1,0.1-0.3,0.2-0.4,0.3c-0.1,0.1-0.3,0.1-0.4,0.2c-1.1,0.6-2.2,0.8-3.3,0.8c-1.3,0-2.4-0.6-3.5-1.7
		l-2.1,2.1c1.6,1.6,3.4,2.5,5.4,2.6c1.7,0.1,3.3-0.3,4.9-1.1l0,0c1.6-0.9,2.9-2,3.6-3.5c0.9-1.7,0.9-3.5,0.1-5.3
		C358,448.3,357,447.4,355.5,446.8z"/>
	<polygon class="st0" points="378.8,435.2 364.1,426.1 373.2,447.7 375.7,445.8 370.5,433.7 383.5,441.7 379.7,426.8 389.8,435.3 
		392.3,433.5 374.5,418.5 	"/>
	<path class="st0" d="M402,424.8l2.3-2.3l-1.6-3.8l5.8-5.9l3.8,1.6l2.3-2.3l-22-9.1L402,424.8z M401.4,415.7l-3.1-7.1l7.2,3
		L401.4,415.7z"/>
	<polygon class="st0" points="422.6,397.6 407.9,386.5 406.1,388.9 423.2,401.8 431.4,390.9 429,389.1 	"/>
	<polygon class="st0" points="437.8,375.3 421.8,366.1 420.3,368.8 438.9,379.4 445.6,367.5 443,366 	"/>
	<path class="st0" d="M255.6,383.4v4.4h110.2v-38.6h-4.2c-0.8,8.4-4.2,16-9.7,22.4c-7.7,8.9-16.5,11.8-28.3,11.8H305V325h14.5
		c16.6,0,21.2,8.6,21.6,23.4h4v-50.8h-4c-1.6,15-4.4,22.8-21.6,22.8H305v-55.1h18.2c12.5,0,20.8,1.7,28.4,12
		c4.6,6.3,5.1,9.9,6.3,17.5h4.2l-1-33.9h-94.2c-0.5-0.5-1.1-1-1.7-1.5c3.5-1.1,6.8-2.7,10-4.8l-1.3-2.1c-1.3,0.6-2.5,1.1-3.5,1.4
		c-1,0.3-1.9,0.5-2.6,0.5c-6.3,0-9.7-7.1-10.4-21.2c-0.2-3.3-0.4-5.9-0.5-7.7c-0.7-11.3-4.1-19.9-10.3-25.8
		c-6.2-5.9-15.6-9.3-28-10.4v-1c13.9-1.9,24.1-5.3,30.6-10.3c6.5-4.9,9.8-11.8,9.8-20.4c0-10.1-4.4-17.7-13.2-22.8
		s-21.8-7.8-38.8-7.8h-61.7v3H161v125.2H152c-1.2-0.1-2.4-0.2-3.6-0.2c-1,0-2,0.1-2.9,0.2h-0.3v0c-13.4,0.8-23.6,6.7-31.2,14.8
		c-11.9,12.6-21.7,34.3-13.1,56c4.2,10.7,15.8,20,27.3,20c13,0,20.6-8.9,26.4-17.1c0.9-1.2,2.7-3.9,1.9-5.8
		c-0.1-0.4-0.7-0.8-1.1-0.8c-1.8,0-3.1,3.5-3.8,4.6c-2.8,5.2-10.8,8.7-17.8,8.7c-12,0-19.9-8.7-23.9-19.2c-9.2-23.5,10-58,34.6-58
		c10.8,0,18.5,6.8,22.4,16.7c2.3,5.8,2.9,12.6,3.3,18.2c1.1,21.7-4.8,40.5-9.5,59.7c-1.6,6.2-5.5,27-2.9,33.5c0.4,1,1.1,1.9,2.4,1.9
		c2,0,1.4-1.9,1.5-3.3c0.3-4.3,4.3-9.5,6.9-12.6c2.3-2.9,4.8-5.6,7.3-8.5c9.6-10.9,18.4-22.5,25.4-35.3c5.5-10.1,9.6-20.9,13.5-32
		c-0.3,10.1-1.9,20.4,0.2,31.2l4.8,24.6c2.1,10.5,3.7,21.1,3.1,31c0,0.6,0,1,0.2,1.5c0.3,0.8,1.2,1.5,2,1.5c1.4,0,1.3-1.3,1.3-2.3
		c0.9-9.5,7.6-20.5,12.8-27.7c9.9-13.2,21.6-28.2,28.7-44.8v71.4L255.6,383.4L255.6,383.4z M190.8,130.1h9.4
		c10.5,0,17.9,2.1,22.1,6.1c4.2,4.1,6.3,11.4,6.3,21.8c0,10.3-2.1,17.8-6.4,22.6c-4.3,4.7-11.1,7.1-20.3,7.1h-11V130.1z
		 M235.3,356.6c0.6-11.2,1-22.5-0.6-34.3c-2.1-15.1-9.5-35.5-7.4-49c0.3-2.3,0.9-4.3,2-6.2c0.4-0.6,1.2-1.5,0.8-2.5
		c-0.2-0.6-0.8-1-1.4-1c-1.6,0-4,3.7-4.7,4.9c-7.3,10.1-10.3,22.3-13.9,34.5c-6.3,21.7-19.6,41.1-35,56.4c9-20.9,24-49.8,13-77.9
		c-4.4-11.2-13-19.1-23.2-23.2h43.6v-3h-17.6v-64.7c0.6,0,1.5,0,2.6-0.1c1.2-0.1,2-0.1,2.6-0.1c10.9,0,18.6,2.1,23.2,6.1
		c4.5,4.1,7.2,11.6,7.9,22.4c0.1,1.9,0.2,4.4,0.3,7.7c0.4,12.6,2.4,21.2,6,25.8c2.3,2.9,5.1,5.2,8.3,6.7c2.3,1.1,4.9,1.8,7.5,2.1
		c-0.3,1.5-0.2,3.3,0.5,5.1c0.2,0.6,0.8,1.9,1.8,1.9c1,0,1.9-0.4,2.9-0.4c4.4,0,7.7,4.8,9,8.1C273.9,303,247.6,338.7,235.3,356.6z"
		/>
	<path class="st0" d="M274,154c-24.1,29.7-20.2,71.9,6.2,93.4c26.5,21.5,68.6,16.6,92.8-13c24.1-29.7,20.2-71.9-6.2-93.5
		C340.3,119.5,298.1,124.3,274,154z M355.2,219.9c-15.4,18.9-45.1,47.9-73,25.2c-27.9-22.6-5.7-57.7,9.7-76.6
		c15.4-18.9,45.1-47.9,73-25.2C392.8,165.9,370.6,201,355.2,219.9z"/>
	<path class="st0" d="M47.8,264.7c0-112.6,91.6-204.3,204.3-204.3c112.6,0,204.3,91.6,204.3,204.3c0,29-6,57.1-17.9,83.5l-0.1,0.2
		l3.8,2.9l0.1-0.3c12.4-27.3,18.7-56.3,18.7-86.3c0-115.2-93.7-208.9-208.9-208.9S43.2,149.6,43.2,264.7c0,29.6,6.2,58.3,18.3,85.3
		l0.1,0.3l3.8-2.9l-0.1-0.2C53.6,321.1,47.8,293.3,47.8,264.7z"/>
</g>
</svg>
